<?xml version="1.0" encoding="UTF-8"?>
<!DOCTYPE svg PUBLIC "-//W3C//DTD SVG 1.1//EN" "http://www.w3.org/Graphics/SVG/1.1/DTD/svg11.dtd">
<svg xmlns="http://www.w3.org/2000/svg" version="1.1" width="420px" height="420px" style="shape-rendering:geometricPrecision; text-rendering:geometricPrecision; image-rendering:optimizeQuality; fill-rule:evenodd; clip-rule:evenodd" xmlns:xlink="http://www.w3.org/1999/xlink">
<g><path style="opacity:0.977" fill="#040404" d="M 246.5,5.5 C 253.622,5.2839 260.622,6.11723 267.5,8C 296.2,14.2066 324.867,20.5399 353.5,27C 357.931,31.6936 360.931,37.1936 362.5,43.5C 377.299,47.9629 388.799,56.6295 397,69.5C 399.969,78.0977 397.136,83.2644 388.5,85C 378.087,94.7424 368.421,105.076 359.5,116C 377.992,164.071 383.158,213.571 375,264.5C 370.625,286.662 361.458,306.495 347.5,324C 355.123,334.746 362.623,345.58 370,356.5C 372.498,358.417 375.165,360.084 378,361.5C 380.192,367.938 378.858,373.605 374,378.5C 363.751,387.2 351.917,392.534 338.5,394.5C 336.146,400.688 332.146,405.521 326.5,409C 291.192,411.302 255.859,412.635 220.5,413C 216.73,411.699 213.563,409.533 211,406.5C 194.675,403.28 178.841,398.447 163.5,392C 159.75,391.74 156.084,391.073 152.5,390C 145.127,382.296 138.127,374.296 131.5,366C 78.391,352.891 44.2243,320.058 29,267.5C 21.9474,239.917 19.6141,211.917 22,183.5C 27.981,110.392 66.8143,65.8915 138.5,50C 150.538,38.9597 162.871,28.293 175.5,18C 196.674,14.2497 218.007,11.5831 239.5,10C 241.76,8.21166 244.093,6.71166 246.5,5.5 Z M 281.5,53.5 C 279.599,53.4332 277.766,53.7665 276,54.5C 248.18,51.9732 220.346,49.4732 192.5,47C 194.298,44.5275 196.632,42.8608 199.5,42C 211.799,40.5185 224.132,40.1851 236.5,41C 238.863,43.1801 241.53,44.8468 244.5,46C 257.361,46.4704 269.694,48.9704 281.5,53.5 Z M 323.5,68.5 C 323.56,67.9569 323.893,67.6236 324.5,67.5C 330.829,70.9195 337.496,72.0862 344.5,71C 348.581,72.4715 352.581,74.1382 356.5,76C 352.311,79.6896 347.978,83.1896 343.5,86.5C 337.76,79.4243 331.093,73.4243 323.5,68.5 Z M 294.5,365.5 C 305.27,359.945 315.604,353.612 325.5,346.5C 329.845,350.847 333.845,355.514 337.5,360.5C 337.291,361.086 336.957,361.586 336.5,362C 332.649,362.754 328.816,363.588 325,364.5C 322.143,363.241 319.143,362.575 316,362.5C 308.831,363.568 301.665,364.568 294.5,365.5 Z"/></g>
<g><path style="opacity:1" fill="#373737" d="M 247.5,14.5 C 250.85,14.335 254.183,14.5017 257.5,15C 271.459,18.159 285.459,20.9923 299.5,23.5C 297.836,31.4899 296.17,39.4899 294.5,47.5C 278.541,42.2603 262.208,38.7603 245.5,37C 244.299,36.0975 243.465,34.9308 243,33.5C 241.28,26.2827 242.78,19.9493 247.5,14.5 Z"/></g>
<g><path style="opacity:1" fill="#a5a5a5" d="M 220.5,19.5 C 225.214,19.1734 229.88,19.5067 234.5,20.5C 233.574,24.0938 233.241,27.7604 233.5,31.5C 222.466,31.8842 211.466,31.8842 200.5,31.5C 199.877,28.8332 198.877,26.3332 197.5,24C 205.216,22.1562 212.883,20.6562 220.5,19.5 Z"/></g>
<g><path style="opacity:1" fill="#6f6f6f" d="M 181.5,24.5 C 190.61,24.7717 193.443,29.1051 190,37.5C 172.126,53.0432 153.959,68.2099 135.5,83C 127.839,83.6699 124.673,80.1699 126,72.5C 144.478,56.3642 162.978,40.3642 181.5,24.5 Z"/></g>
<g><path style="opacity:1" fill="#373737" d="M 307.5,26.5 C 321.303,28.5989 334.969,31.4322 348.5,35C 351.279,38.046 352.779,41.546 353,45.5C 349.724,53.4331 344.224,59.0997 336.5,62.5C 325.468,58.767 314.468,54.9337 303.5,51C 302.978,50.4387 302.645,49.772 302.5,49C 304.407,41.5399 306.074,34.0399 307.5,26.5 Z"/></g>
<g><path style="opacity:1" fill="#a4a4a4" d="M 359.5,51.5 C 370.115,55.2802 379.281,61.2802 387,69.5C 387.833,71.1667 388.667,72.8333 389.5,74.5C 375.879,73.5217 362.879,69.855 350.5,63.5C 353.996,59.828 356.996,55.828 359.5,51.5 Z"/></g>
<g><path style="opacity:1" fill="#dfdfdf" d="M 180.5,55.5 C 188.942,55.2903 197.275,56.1236 205.5,58C 210.951,63.3993 214.451,69.8993 216,77.5C 218.871,88.0241 221.038,98.6907 222.5,109.5C 222.291,110.994 221.624,112.161 220.5,113C 169.871,122.963 139.037,153.13 128,203.5C 124.027,241.59 136.193,273.423 164.5,299C 173.246,305.419 182.246,311.419 191.5,317C 184.665,331.174 175.499,343.674 164,354.5C 152.19,339.722 140.024,325.222 127.5,311C 119.948,307.233 112.781,307.733 106,312.5C 100.555,319.275 100.221,326.275 105,333.5C 110.715,340.426 116.548,347.26 122.5,354C 79.8616,340.028 52.0282,311.528 39,268.5C 45.0207,276.182 52.5207,282.015 61.5,286C 69.1831,287.581 75.8498,285.748 81.5,280.5C 89.3869,271.4 95.2202,261.067 99,249.5C 113.547,207.975 115.213,165.975 104,123.5C 96.084,102.121 81.584,95.2873 60.5,103C 77.0489,84.0907 97.3822,71.424 121.5,65C 116.791,71.4707 116.291,78.304 120,85.5C 125.663,91.6956 132.497,93.1956 140.5,90C 154.092,78.7187 167.425,67.2187 180.5,55.5 Z"/></g>
<g><path style="opacity:1" fill="#dedede" d="M 217.5,58.5 C 227.851,58.9595 238.185,59.6261 248.5,60.5C 249.065,68.1798 249.732,75.8464 250.5,83.5C 255.518,83.6133 260.518,83.9466 265.5,84.5C 265.832,94.5222 265.499,104.522 264.5,114.5C 253.349,111.825 242.016,110.825 230.5,111.5C 228.825,93.1358 224.492,75.4691 217.5,58.5 Z"/></g>
<g><path style="opacity:1" fill="#363636" d="M 257.5,61.5 C 264.496,61.8936 271.496,62.2269 278.5,62.5C 279.194,67.8049 279.528,73.1383 279.5,78.5C 272.183,77.3538 264.85,76.3538 257.5,75.5C 257.5,70.8333 257.5,66.1667 257.5,61.5 Z"/></g>
<g><path style="opacity:1" fill="#dddddd" d="M 287.5,65.5 C 295.101,67.5337 302.601,69.8671 310,72.5C 315.491,94.5782 317.158,116.912 315,139.5C 303.147,128.737 289.48,121.07 274,116.5C 273.5,106.506 273.334,96.5056 273.5,86.5C 278.527,86.5029 283.527,86.8363 288.5,87.5C 287.962,80.1781 287.629,72.8447 287.5,65.5 Z"/></g>
<g><path style="opacity:1" fill="#dedede" d="M 319.5,76.5 C 329.237,83.406 337.071,92.0726 343,102.5C 363.545,143.021 372.545,186.021 370,231.5C 367.117,301.868 331.95,346.868 264.5,366.5C 263.479,365.998 263.312,365.332 264,364.5C 273.928,348.315 283.095,331.648 291.5,314.5C 343.987,283.837 361.82,239.17 345,180.5C 339.367,167.382 331.867,155.549 322.5,145C 325.666,121.995 324.666,99.1614 319.5,76.5 Z"/></g>
<g><path style="opacity:1" fill="#6f6f6f" d="M 365.5,79.5 C 369.846,79.5608 373.846,80.7274 377.5,83C 370.016,91.6507 362.016,99.8173 353.5,107.5C 348.437,104.966 346.27,100.966 347,95.5C 353.654,90.6753 359.821,85.342 365.5,79.5 Z"/></g>
<g><path style="opacity:1" fill="#6f6f6f" d="M 71.5,108.5 C 77.6983,107.164 83.365,108.664 88.5,113C 97.0818,126.141 101.582,140.641 102,156.5C 105.259,191.431 100.259,225.098 87,257.5C 83.9702,265.415 79.1369,271.915 72.5,277C 69.634,278.457 66.634,278.79 63.5,278C 60.328,276.248 57.328,274.248 54.5,272C 59.7167,271.154 64.3834,269.154 68.5,266C 79.292,252.663 86.4586,237.496 90,220.5C 95.3471,191.94 94.3471,163.607 87,135.5C 84.5863,127.925 81.5863,120.592 78,113.5C 76.2228,111.21 74.0562,109.543 71.5,108.5 Z"/></g>
<g><path style="opacity:1" fill="#373737" d="M 64.5,116.5 C 66.604,116.201 68.604,116.534 70.5,117.5C 79.7229,136.059 84.3895,155.726 84.5,176.5C 66.7068,175.973 49.0401,174.307 31.5,171.5C 32.8715,153.603 39.5382,138.103 51.5,125C 55.5568,121.645 59.8901,118.812 64.5,116.5 Z"/></g>
<g><path style="opacity:1" fill="#e0e0e0" d="M 226.5,119.5 C 239.317,118.894 251.984,119.894 264.5,122.5C 262.997,133.191 261.33,143.858 259.5,154.5C 227.497,151.582 203.997,164.249 189,192.5C 181.091,212.029 181.925,231.196 191.5,250C 179.794,258.697 167.794,267.03 155.5,275C 154.668,275.688 154.002,275.521 153.5,274.5C 134.444,246.17 130.61,215.837 142,183.5C 158.943,147.285 187.109,125.952 226.5,119.5 Z"/></g>
<g><path style="opacity:1" fill="#dedede" d="M 247.5,317.5 C 243.958,317.813 240.625,317.479 237.5,316.5C 238.842,305.447 240.509,294.447 242.5,283.5C 279.639,284.356 303.472,267.023 314,231.5C 317.981,194.512 302.648,169.512 268,156.5C 269.04,146.126 270.54,135.793 272.5,125.5C 286.752,128.927 299.252,135.594 310,145.5C 309.76,159.161 309.76,172.827 310,186.5C 311.251,189.381 313.417,191.214 316.5,192C 324.605,193.848 332.772,195.014 341,195.5C 349.314,246.371 330.814,283.871 285.5,308C 273.459,313.677 260.793,316.844 247.5,317.5 Z"/></g>
<g><path style="opacity:1" fill="#d9d9d9" d="M 318.5,154.5 C 327.028,163.699 333.694,174.199 338.5,186C 331.442,186.753 324.609,185.92 318,183.5C 317.637,173.829 317.804,164.162 318.5,154.5 Z"/></g>
<g><path style="opacity:1" fill="#f0c750" d="M 244.5,162.5 C 246.167,162.5 247.833,162.5 249.5,162.5C 248.832,168.178 247.998,173.845 247,179.5C 245.419,182.553 243.086,183.22 240,181.5C 239.077,179.966 238.577,178.299 238.5,176.5C 239.651,172.234 240.317,167.9 240.5,163.5C 241.708,162.766 243.041,162.433 244.5,162.5 Z"/></g>
<g><path style="opacity:1" fill="#110f0c" d="M 244.5,162.5 C 249.72,161.808 255.053,162.141 260.5,163.5C 256.677,169.138 252.843,174.805 249,180.5C 248.289,182.367 248.789,183.867 250.5,185C 252.769,185.758 254.936,185.591 257,184.5C 261.415,178.267 265.582,171.933 269.5,165.5C 275.224,168.023 280.558,171.023 285.5,174.5C 282.984,174.755 280.65,175.589 278.5,177C 272.33,180.919 265.997,184.586 259.5,188C 256.833,194.333 258.833,196.667 265.5,195C 274.233,190.309 282.566,185.143 290.5,179.5C 294.915,184.26 298.581,189.594 301.5,195.5C 289.154,195.632 276.821,196.132 264.5,197C 261.162,198.988 260.828,201.321 263.5,204C 277.173,204.487 290.84,204.321 304.5,203.5C 306.132,210.046 306.799,216.713 306.5,223.5C 292.847,217.759 279.013,212.426 265,207.5C 261.553,209.029 260.72,211.529 262.5,215C 257.308,215.893 255.642,218.726 257.5,223.5C 255.473,223.338 253.473,223.505 251.5,224C 250.426,224.739 249.759,225.739 249.5,227C 255.8,242.072 261.8,257.238 267.5,272.5C 262.555,273.778 257.555,274.778 252.5,275.5C 251.334,260.507 250.167,245.507 249,230.5C 247.06,227.392 244.394,226.725 241,228.5C 240.833,230 240.667,231.5 240.5,233C 241.859,246.812 242.859,260.645 243.5,274.5C 238.606,274.442 233.939,273.442 229.5,271.5C 232.749,258.259 235.749,244.926 238.5,231.5C 238.206,227.013 235.873,225.513 231.5,227C 230.934,227.995 230.267,228.828 229.5,229.5C 229.987,224.824 227.987,222.657 223.5,223C 216.221,232.441 209.554,242.274 203.5,252.5C 200.586,248.342 197.919,244.009 195.5,239.5C 196.423,240.303 197.423,240.47 198.5,240C 206.333,234.167 214.167,228.333 222,222.5C 222.645,218.15 220.812,215.983 216.5,216C 208.955,221.719 201.288,227.219 193.5,232.5C 193.016,228.768 192.349,225.101 191.5,221.5C 200.251,219.208 208.751,216.208 217,212.5C 218.416,208.492 217.082,206.159 213,205.5C 205.965,207.345 199.132,209.678 192.5,212.5C 192.788,209.061 193.454,205.728 194.5,202.5C 200.492,203.166 206.492,203.832 212.5,204.5C 218.705,204.674 220.039,202.174 216.5,197C 210.215,195.73 203.882,194.897 197.5,194.5C 199.684,190.119 202.35,186.119 205.5,182.5C 208.116,187.947 211.95,192.281 217,195.5C 218.642,195.022 219.809,194.022 220.5,192.5C 221.434,191.432 221.768,190.099 221.5,188.5C 222.791,188.737 223.791,188.404 224.5,187.5C 226.727,186.599 227.727,184.933 227.5,182.5C 227.328,181.508 227.662,180.842 228.5,180.5C 230.563,183.973 233.063,184.306 236,181.5C 236.499,175.509 236.666,169.509 236.5,163.5C 237.833,163.5 239.167,163.5 240.5,163.5C 240.317,167.9 239.651,172.234 238.5,176.5C 238.577,178.299 239.077,179.966 240,181.5C 243.086,183.22 245.419,182.553 247,179.5C 247.998,173.845 248.832,168.178 249.5,162.5C 247.833,162.5 246.167,162.5 244.5,162.5 Z"/></g>
<g><path style="opacity:1" fill="#f2c751" d="M 260.5,163.5 C 263.5,164.167 266.5,164.833 269.5,165.5C 265.582,171.933 261.415,178.267 257,184.5C 254.936,185.591 252.769,185.758 250.5,185C 248.789,183.867 248.289,182.367 249,180.5C 252.843,174.805 256.677,169.138 260.5,163.5 Z"/></g>
<g><path style="opacity:1" fill="#f1c750" d="M 236.5,163.5 C 236.666,169.509 236.499,175.509 236,181.5C 233.063,184.306 230.563,183.973 228.5,180.5C 228.817,176.298 228.483,172.298 227.5,168.5C 227.414,167.504 227.748,166.671 228.5,166C 231.022,164.659 233.689,163.826 236.5,163.5 Z"/></g>
<g><path style="opacity:1" fill="#f3c851" d="M 226.5,179.5 C 226.263,180.791 226.596,181.791 227.5,182.5C 227.727,184.933 226.727,186.599 224.5,187.5C 221.089,188.067 219.089,186.734 218.5,183.5C 218.154,180.115 217.488,176.782 216.5,173.5C 218.282,170.681 220.782,168.681 224,167.5C 224.945,171.494 225.778,175.494 226.5,179.5 Z"/></g>
<g><path style="opacity:1" fill="#806a2e" d="M 227.5,168.5 C 228.483,172.298 228.817,176.298 228.5,180.5C 227.662,180.842 227.328,181.508 227.5,182.5C 226.596,181.791 226.263,180.791 226.5,179.5C 227.482,176.038 227.815,172.371 227.5,168.5 Z"/></g>
<g><path style="opacity:1" fill="#f2c851" d="M 285.5,174.5 C 287.36,175.939 289.027,177.605 290.5,179.5C 282.566,185.143 274.233,190.309 265.5,195C 258.833,196.667 256.833,194.333 259.5,188C 265.997,184.586 272.33,180.919 278.5,177C 280.65,175.589 282.984,174.755 285.5,174.5 Z"/></g>
<g><path style="opacity:1" fill="#f2c851" d="M 218.5,185.5 C 219.933,187.558 220.6,189.892 220.5,192.5C 219.809,194.022 218.642,195.022 217,195.5C 211.95,192.281 208.116,187.947 205.5,182.5C 207.127,180.37 208.96,178.37 211,176.5C 213.364,179.69 215.864,182.69 218.5,185.5 Z"/></g>
<g><path style="opacity:1" fill="#1d1d1d" d="M 30.5,180.5 C 48.4457,182.647 66.4457,184.313 84.5,185.5C 84.5,188.5 84.5,191.5 84.5,194.5C 66.4871,192.953 48.4871,191.287 30.5,189.5C 30.5,186.5 30.5,183.5 30.5,180.5 Z"/></g>
<g><path style="opacity:1" fill="#4f4220" d="M 218.5,183.5 C 219.089,186.734 221.089,188.067 224.5,187.5C 223.791,188.404 222.791,188.737 221.5,188.5C 221.768,190.099 221.434,191.432 220.5,192.5C 220.6,189.892 219.933,187.558 218.5,185.5C 218.5,184.833 218.5,184.167 218.5,183.5 Z"/></g>
<g><path style="opacity:1" fill="#f4c951" d="M 197.5,194.5 C 203.882,194.897 210.215,195.73 216.5,197C 220.039,202.174 218.705,204.674 212.5,204.5C 206.492,203.832 200.492,203.166 194.5,202.5C 195.108,199.673 196.108,197.007 197.5,194.5 Z"/></g>
<g><path style="opacity:1" fill="#f7cc52" d="M 301.5,195.5 C 303.06,197.954 304.06,200.62 304.5,203.5C 290.84,204.321 277.173,204.487 263.5,204C 260.828,201.321 261.162,198.988 264.5,197C 276.821,196.132 289.154,195.632 301.5,195.5 Z"/></g>
<g><path style="opacity:1" fill="#373737" d="M 29.5,197.5 C 47.8083,199.413 66.1416,201.08 84.5,202.5C 82.4493,222.49 75.9493,240.823 65,257.5C 62.2168,260.14 59.0501,262.14 55.5,263.5C 51.2701,261.463 47.4368,258.796 44,255.5C 34.8839,245.262 30.2172,233.262 30,219.5C 29.5003,212.174 29.3337,204.841 29.5,197.5 Z"/></g>
<g><path style="opacity:1" fill="#efc550" d="M 191.5,221.5 C 191.19,218.287 191.523,215.287 192.5,212.5C 199.132,209.678 205.965,207.345 213,205.5C 217.082,206.159 218.416,208.492 217,212.5C 208.751,216.208 200.251,219.208 191.5,221.5 Z"/></g>
<g><path style="opacity:1" fill="#f3c951" d="M 306.5,223.5 C 306.167,226.167 305.833,228.833 305.5,231.5C 291.995,227.086 278.661,222.086 265.5,216.5C 265.167,216.833 264.833,217.167 264.5,217.5C 274.852,228.684 285.019,240.018 295,251.5C 294.28,254.265 292.613,256.599 290,258.5C 279.15,246.76 268.317,235.093 257.5,223.5C 255.642,218.726 257.308,215.893 262.5,215C 260.72,211.529 261.553,209.029 265,207.5C 279.013,212.426 292.847,217.759 306.5,223.5 Z"/></g>
<g><path style="opacity:1" fill="#f1c750" d="M 195.5,239.5 C 194.985,237.106 194.319,234.772 193.5,232.5C 201.288,227.219 208.955,221.719 216.5,216C 220.812,215.983 222.645,218.15 222,222.5C 214.167,228.333 206.333,234.167 198.5,240C 197.423,240.47 196.423,240.303 195.5,239.5 Z"/></g>
<g><path style="opacity:1" fill="#f2c750" d="M 229.5,229.5 C 223.03,238.823 216.696,248.323 210.5,258C 209.5,258.667 208.5,258.667 207.5,258C 206.335,256.008 205.002,254.175 203.5,252.5C 209.554,242.274 216.221,232.441 223.5,223C 227.987,222.657 229.987,224.824 229.5,229.5 Z"/></g>
<g><path style="opacity:1" fill="#f3c851" d="M 257.5,223.5 C 263.764,238.366 269.764,253.366 275.5,268.5C 273.085,270.374 270.419,271.707 267.5,272.5C 261.8,257.238 255.8,242.072 249.5,227C 249.759,225.739 250.426,224.739 251.5,224C 253.473,223.505 255.473,223.338 257.5,223.5 Z"/></g>
<g><path style="opacity:1" fill="#f0c650" d="M 229.5,271.5 C 225.208,271.382 222.542,269.382 221.5,265.5C 224.495,253.527 227.161,241.527 229.5,229.5C 230.267,228.828 230.934,227.995 231.5,227C 235.873,225.513 238.206,227.013 238.5,231.5C 235.749,244.926 232.749,258.259 229.5,271.5 Z"/></g>
<g><path style="opacity:1" fill="#f3c851" d="M 252.5,275.5 C 249.287,275.81 246.287,275.477 243.5,274.5C 242.859,260.645 241.859,246.812 240.5,233C 240.667,231.5 240.833,230 241,228.5C 244.394,226.725 247.06,227.392 249,230.5C 250.167,245.507 251.334,260.507 252.5,275.5 Z"/></g>
<g><path style="opacity:1" fill="#070707" d="M 176.5,238.5 C 185.818,238.655 187.818,242.488 182.5,250C 175,251.833 172.167,249 174,241.5C 174.698,240.309 175.531,239.309 176.5,238.5 Z"/></g>
<g><path style="opacity:1" fill="#dedede" d="M 195.5,257.5 C 204.034,267.438 214.367,274.938 226.5,280C 229.117,280.822 231.784,281.322 234.5,281.5C 232.664,293.519 230.664,305.519 228.5,317.5C 201.602,314.739 179.102,303.406 161,283.5C 160.493,282.004 160.993,280.837 162.5,280C 173.913,272.972 184.913,265.472 195.5,257.5 Z"/></g>
<g><path style="opacity:1" fill="#080808" d="M 190.5,263.5 C 199.555,262.814 201.888,266.481 197.5,274.5C 191.713,277.043 188.379,275.21 187.5,269C 187.863,266.808 188.863,264.974 190.5,263.5 Z"/></g>
<g><path style="opacity:1" fill="#0d0d0d" d="M 203.5,272.5 C 209.028,271.069 212.362,273.069 213.5,278.5C 212.349,284.091 209.016,285.925 203.5,284C 199.581,280.173 199.581,276.339 203.5,272.5 Z"/></g>
<g><path style="opacity:1" fill="#141414" d="M 258.5,285.5 C 273.259,285.69 278.092,292.69 273,306.5C 263.151,314.399 255.484,312.732 250,301.5C 249.165,294.18 251.998,288.847 258.5,285.5 Z"/></g>
<g><path style="opacity:1" fill="#d9d9d9" d="M 259.5,289.5 C 270.716,290.11 273.716,295.276 268.5,305C 258.412,308.573 253.912,305.073 255,294.5C 256.193,292.503 257.693,290.836 259.5,289.5 Z"/></g>
<g><path style="opacity:1" fill="#6f6f6f" d="M 114.5,316.5 C 119.347,315.84 123.181,317.507 126,321.5C 139.333,337.5 152.667,353.5 166,369.5C 170.411,376.41 168.744,381.077 161,383.5C 159.373,383.375 157.873,382.875 156.5,382C 141.214,363.926 126.048,345.759 111,327.5C 109.663,322.872 110.83,319.205 114.5,316.5 Z"/></g>
<g><path style="opacity:1" fill="#5b5b5b" d="M 237.5,316.5 C 240.625,317.479 243.958,317.813 247.5,317.5C 243.981,318.808 240.315,318.808 236.5,317.5C 236.624,316.893 236.957,316.56 237.5,316.5 Z"/></g>
<g><path style="opacity:1" fill="#dedede" d="M 199.5,319.5 C 208.403,322.214 217.403,324.547 226.5,326.5C 223.26,332.973 220.594,339.64 218.5,346.5C 210.167,346.5 201.833,346.5 193.5,346.5C 192.82,352.555 191.82,358.555 190.5,364.5C 184.149,365.114 177.816,364.614 171.5,363C 170.643,362.311 169.977,361.478 169.5,360.5C 182.209,348.721 192.209,335.054 199.5,319.5 Z"/></g>
<g><path style="opacity:1" fill="#dddddd" d="M 276.5,319.5 C 277.675,319.281 278.675,319.614 279.5,320.5C 271.258,336.656 262.258,352.323 252.5,367.5C 247.208,368.495 241.875,368.828 236.5,368.5C 238.029,361.385 240.029,354.385 242.5,347.5C 237.544,346.506 232.544,346.173 227.5,346.5C 229.833,339.833 232.167,333.167 234.5,326.5C 249.07,326.738 263.07,324.405 276.5,319.5 Z"/></g>
<g><path style="opacity:1" fill="#6f6f6f" d="M 337.5,328.5 C 338.822,328.33 339.989,328.663 341,329.5C 347.5,339.167 354,348.833 360.5,358.5C 356.205,359.661 351.871,359.828 347.5,359C 343.044,352.875 338.211,347.042 333,341.5C 331.249,339.788 330.582,337.788 331,335.5C 332.694,332.642 334.861,330.309 337.5,328.5 Z"/></g>
<g><path style="opacity:1" fill="#373737" d="M 200.5,355.5 C 210.5,355.5 220.5,355.5 230.5,355.5C 229.378,361.153 227.711,366.653 225.5,372C 220.413,372.919 215.58,374.419 211,376.5C 206.52,375.637 202.02,374.97 197.5,374.5C 198.407,368.153 199.407,361.82 200.5,355.5 Z"/></g>
<g><path style="opacity:1" fill="#a5a5a5" d="M 354.5,367.5 C 359.844,367.334 365.177,367.501 370.5,368C 366.171,374.007 360.505,378.34 353.5,381C 349.489,382.335 345.489,383.669 341.5,385C 339.741,385.798 338.074,385.631 336.5,384.5C 334.516,380.531 332.516,376.531 330.5,372.5C 338.549,370.453 346.549,368.787 354.5,367.5 Z"/></g>
<g><path style="opacity:1" fill="#373737" d="M 311.5,371.5 C 313.857,371.337 316.19,371.503 318.5,372C 323.858,377.357 327.525,383.69 329.5,391C 327.924,398.567 323.258,401.9 315.5,401C 304.165,401.53 292.831,402.03 281.5,402.5C 281.454,394.136 281.287,385.803 281,377.5C 291.249,375.417 301.416,373.417 311.5,371.5 Z"/></g>
<g><path style="opacity:1" fill="#a5a5a5" d="M 176.5,377.5 C 187.384,380.571 198.384,383.238 209.5,385.5C 208.574,389.094 208.241,392.76 208.5,396.5C 196.119,394.318 184.119,390.818 172.5,386C 174.782,383.603 176.116,380.769 176.5,377.5 Z"/></g>
<g><path style="opacity:1" fill="#373737" d="M 268.5,378.5 C 269.833,378.5 271.167,378.5 272.5,378.5C 273.055,386.822 273.388,395.156 273.5,403.5C 256.168,404.138 238.835,404.305 221.5,404C 219.513,402.681 218.346,400.848 218,398.5C 217.333,394.5 217.333,390.5 218,386.5C 218.774,384.061 220.274,382.227 222.5,381C 238.061,382.199 253.395,381.366 268.5,378.5 Z"/></g>
</svg>
